name C:\Users\u0150099\Documents\master_thesis\3dpredictsim\Results\debug\Fal_s1_mtjc2_sc_cspx10_oy2_MTc2_MTPm_k1_d01_MTJm_nl_MG_exp5_table_d01_PF_Natali2010_x3_ls146_ig21.mot
datacolumns 128
datarows 4
range 1.07524049 1.10749770
endheader
time	pelvis_tilt	pelvis_list	pelvis_rotation	pelvis_tx	pelvis_ty	pelvis_tz	hip_flexion_l	hip_adduction_l	hip_rotation_l	hip_flexion_r	hip_adduction_r	hip_rotation_r	knee_angle_l	knee_angle_r	ankle_angle_l	ankle_angle_r	subtalar_angle_l	subtalar_angle_r	mtj_angle_l	mtj_angle_r	mtp_angle_l	mtp_angle_r	lumbar_extension	lumbar_bending	lumbar_rotation	arm_flex_l	arm_add_l	arm_rot_l	arm_flex_r	arm_add_r	arm_rot_r	elbow_flex_l	elbow_flex_r	pro_sup_l	pro_sup_r	glut_med1_l/activation	glut_med2_l/activation	glut_med3_l/activation	glut_min1_l/activation	glut_min2_l/activation	glut_min3_l/activation	semimem_l/activation	semiten_l/activation	bifemlh_l/activation	bifemsh_l/activation	sar_l/activation	add_long_l/activation	add_brev_l/activation	add_mag1_l/activation	add_mag2_l/activation	add_mag3_l/activation	tfl_l/activation	pect_l/activation	grac_l/activation	glut_max1_l/activation	glut_max2_l/activation	glut_max3_l/activation	iliacus_l/activation	psoas_l/activation	quad_fem_l/activation	gem_l/activation	peri_l/activation	rect_fem_l/activation	vas_med_l/activation	vas_int_l/activation	vas_lat_l/activation	med_gas_l/activation	lat_gas_l/activation	soleus_l/activation	tib_post_l/activation	flex_dig_l/activation	flex_hal_l/activation	tib_ant_l/activation	per_brev_l/activation	per_long_l/activation	per_tert_l/activation	ext_dig_l/activation	ext_hal_l/activation	ercspn_l/activation	intobl_l/activation	extobl_l/activation	glut_med1_r/activation	glut_med2_r/activation	glut_med3_r/activation	glut_min1_r/activation	glut_min2_r/activation	glut_min3_r/activation	semimem_r/activation	semiten_r/activation	bifemlh_r/activation	bifemsh_r/activation	sar_r/activation	add_long_r/activation	add_brev_r/activation	add_mag1_r/activation	add_mag2_r/activation	add_mag3_r/activation	tfl_r/activation	pect_r/activation	grac_r/activation	glut_max1_r/activation	glut_max2_r/activation	glut_max3_r/activation	iliacus_r/activation	psoas_r/activation	quad_fem_r/activation	gem_r/activation	peri_r/activation	rect_fem_r/activation	vas_med_r/activation	vas_int_r/activation	vas_lat_r/activation	med_gas_r/activation	lat_gas_r/activation	soleus_r/activation	tib_post_r/activation	flex_dig_r/activation	flex_hal_r/activation	tib_ant_r/activation	per_brev_r/activation	per_long_r/activation	per_tert_r/activation	ext_dig_r/activation	ext_hal_r/activation	ercspn_r/activation	intobl_r/activation	extobl_r/activation	
          1.07524049	         -2.92795373	         -0.84938352	          2.54325396	          1.43006985	          0.90851979	         -0.00299755	        -19.29726041	          2.06567454	         10.03868826	         28.85750436	          2.59986742	         -1.88567742	         -4.70414014	         -9.23417928	          4.27602103	          8.22892793	          2.11210155	         -0.66930062	         -0.11580264	          2.66287306	         14.00092890	         -7.50164850	         -4.29868160	          0.10644649	         -1.80104653	          4.38816806	        -13.80208278	         19.37874944	         -4.10229063	        -13.52252360	          6.11996464	         32.84321273	         27.10945509	         86.51662706	         86.51662706	          0.41895304	          0.08198993	          0.05076208	          0.58094008	          0.22402623	          0.09628428	          0.05000667	          0.05000095	          0.05000061	          0.07436282	          0.11400954	          0.05000063	          0.05000062	          0.05000113	          0.05000373	          0.05000213	          0.60580271	          0.05000345	          0.05000228	          0.05001380	          0.05000618	          0.05000379	          0.44604044	          0.79366604	          0.05000057	          0.05000240	          0.05000054	          0.28996839	          0.05000131	          0.05000126	          0.05000128	          0.45933818	          0.50986955	          0.32674535	          0.32497265	          0.28699661	          0.41297465	          0.05000015	          0.05164902	          0.08228087	          0.05000059	          0.05000041	          0.11525029	          0.05000012	          0.05000008	          0.05000013	          0.05000196	          0.05000211	          0.05001003	          0.05000200	          0.05000245	          0.05000363	          0.25923686	          0.07551649	          0.28758579	          0.09799072	          0.05000455	          0.15535716	          0.16340087	          0.11675251	          0.14127173	          0.11353183	          0.05000936	          0.05661540	          0.16268137	          0.05007265	          0.05695711	          0.09353254	          0.05000297	          0.05000326	          0.16017182	          0.05000408	          0.05000179	          0.05000214	          0.05002065	          0.05001924	          0.05001228	          0.05684919	          0.05000508	          0.05000091	          0.05000258	          0.08958839	          0.06428839	          0.27901628	          0.10071565	          0.11601181	          0.21083346	          0.55066457	          0.21478541	          0.06952459	          0.08435056	          0.09784323	
          1.08599289	         -2.92988543	         -0.92380830	          2.81823914	          1.44665255	          0.90804512	         -0.00284094	        -19.23911996	          1.78446041	          9.94579835	         28.53252212	          2.99658314	         -1.79304890	         -6.54344829	         -9.54703639	          3.95509536	          7.89908078	          3.25337430	         -0.76345708	         -1.21137636	          2.70588751	         16.55322416	         -7.55783173	         -4.15430827	          0.28466245	         -1.90966370	          4.07482592	        -13.75638452	         19.36814429	         -4.73930737	        -13.47503307	          5.49031900	         34.03164685	         26.56026158	         86.51662706	         86.51662706	          0.35528419	          0.06952984	          0.05000011	          0.49265382	          0.18998066	          0.08165192	          0.05000728	          0.05000117	          0.05000082	          0.06306187	          0.09668378	          0.05000221	          0.05000147	          0.05000156	          0.05000460	          0.05000470	          0.51374394	          0.05000924	          0.05000103	          0.05000303	          0.05000207	          0.05000219	          0.37825482	          0.73902629	          0.05000019	          0.05000080	          0.05000035	          0.24590258	          0.07517064	          0.07634064	          0.06309455	          0.38953154	          0.43238367	          0.30224123	          0.27590315	          0.24339100	          0.36219133	          0.05000005	          0.05896027	          0.06977655	          0.05000044	          0.05000021	          0.09773553	          0.05000008	          0.05000032	          0.07240507	          0.05896039	          0.05896039	          0.05000068	          0.05896050	          0.05896045	          0.05896018	          0.22174938	          0.06404253	          0.24753448	          0.09667887	          0.05000131	          0.18681212	          0.19862231	          0.09901081	          0.14750078	          0.12778844	          0.05000543	          0.05044744	          0.20105877	          0.05000114	          0.05000050	          0.10956454	          0.07611429	          0.05000283	          0.35252626	          0.27252657	          0.05964280	          0.05000011	          0.05000039	          0.05000036	          0.05000035	          0.05000065	          0.05000244	          0.05000008	          0.05001464	          0.07597527	          0.06441174	          0.28527969	          0.10020398	          0.14877527	          0.21702419	          0.59385510	          0.18785556	          0.05895887	          0.07153165	          0.08297388	
          1.09674530	         -2.92999393	         -1.01103193	          3.07810731	          1.46353736	          0.90766592	         -0.00265600	        -19.08706170	          1.48008516	          9.80667452	         28.22525279	          3.35672481	         -1.69231223	         -8.50108945	        -10.47735665	          3.42105246	          7.20424117	          4.43779768	         -0.84379760	         -2.44686753	          2.75633930	         19.38380327	         -7.60017883	         -3.99225739	          0.47619875	         -2.01126967	          3.67304540	        -13.70359413	         19.25336423	         -5.39554358	        -13.45051783	          5.07740664	         35.26414627	         26.00679715	         86.51662706	         86.51662706	          0.30129100	          0.05896348	          0.05896049	          0.41778437	          0.16110906	          0.06924346	          0.05002460	          0.05000205	          0.05000313	          0.05347843	          0.08199098	          0.13977272	          0.15836099	          0.05941510	          0.05141935	          0.05896237	          0.49154438	          0.05008066	          0.05016527	          0.05013072	          0.05015857	          0.05537674	          0.32077069	          0.67172344	          0.05896075	          0.05896184	          0.05896032	          0.28222766	          0.12053014	          0.12603760	          0.11253416	          0.33033356	          0.36667339	          0.25630897	          0.23397362	          0.20640281	          0.30714910	          0.05000011	          0.05000012	          0.05917249	          0.05000021	          0.05000015	          0.08288251	          0.06518023	          0.06952740	          0.06919431	          0.05000009	          0.05000024	          0.16741709	          0.05000027	          0.05000028	          0.05000040	          0.18804969	          0.05430998	          0.20991618	          0.08198654	          0.08198559	          0.15845693	          0.33710386	          0.47516042	          0.26516529	          0.11395897	          0.05000067	          0.08312968	          0.17050593	          0.05895981	          0.05896280	          0.20671117	          0.06952693	          0.06952954	          0.62286598	          0.27993521	          0.10263763	          0.06952768	          0.05896361	          0.05896672	          0.05896301	          0.07080101	          0.08198613	          0.07454270	          0.05000022	          0.06952703	          0.06952701	          0.34276581	          0.16225179	          0.12616594	          0.45377085	          0.60211364	          0.24491904	          0.05000003	          0.06066084	          0.07036419	
          1.10749770	         -2.92863776	         -1.13756065	          3.32352158	          1.48067867	          0.90735678	         -0.00248906	        -18.84452234	          1.13763818	          9.61719469	         27.86343827	          3.62168776	         -1.50082214	        -10.54847115	        -11.65329104	          2.61862243	          6.32051846	          5.59475061	         -0.90405763	         -3.77195947	          2.81929977	         22.42573331	         -7.59602535	         -3.81299337	          0.70991526	         -2.10353354	          3.19168539	        -13.64564254	         19.09132756	         -6.06336312	        -13.45850243	          4.85663412	         36.54672173	         25.44808384	         86.51662706	         86.51662706	          0.25588374	          0.05000284	          0.05000030	          0.35429343	          0.13662515	          0.05872059	          0.05000497	          0.05000137	          0.05000090	          0.05000096	          0.06953114	          0.15323804	          0.20470052	          0.05038818	          0.05001092	          0.05000520	          0.54493246	          0.06953079	          0.05000350	          0.05000574	          0.05000358	          0.05000343	          0.27202258	          0.65040479	          0.05000076	          0.05000209	          0.05000021	          0.23933696	          0.10221352	          0.10688390	          0.09543258	          0.28013202	          0.31094923	          0.21735712	          0.19841616	          0.17503545	          0.26047127	          0.09946151	          0.09879342	          0.05384828	          0.05000044	          0.05000026	          0.07028673	          0.08239725	          0.05896117	          0.05867886	          0.34041848	          0.32782896	          0.40765603	          0.35090772	          0.05002365	          0.27847716	          0.15947188	          0.09766956	          0.17875866	          0.06952731	          0.06952640	          0.13437637	          0.33310774	          0.40294969	          0.23178361	          0.23088579	          0.05000149	          0.07050743	          0.15434235	          0.05000044	          0.05000224	          0.27508110	          0.05896135	          0.05896311	          0.52820775	          0.23739308	          0.12254159	          0.05896145	          0.05000333	          0.05000588	          0.05000270	          0.06004124	          0.06952656	          0.06321429	          0.06076720	          0.05896103	          0.05896115	          0.40923117	          0.13759424	          0.11555993	          0.38481098	          0.71172234	          0.56018786	          0.06271701	          0.08538854	          0.05967082	
